<?xml version="1.0" encoding="UTF-8" standalone="no"?>
<!-- Created with Inkscape (http://www.inkscape.org/) -->

<svg
   width="20.006527mm"
   height="20.040121mm"
   viewBox="0 0 20.006527 20.040121"
   version="1.1"
   id="svg1"
   sodipodi:docname="rect4.svg"
   inkscape:export-filename="rect4.png"
   inkscape:export-xdpi="96"
   inkscape:export-ydpi="96"
   inkscape:version="1.4.2 (ebf0e940d0, 2025-05-08)"
   xmlns:inkscape="http://www.inkscape.org/namespaces/inkscape"
   xmlns:sodipodi="http://sodipodi.sourceforge.net/DTD/sodipodi-0.dtd"
   xmlns="http://www.w3.org/2000/svg"
   xmlns:svg="http://www.w3.org/2000/svg">
  <sodipodi:namedview
     id="namedview1"
     pagecolor="#ffffff"
     bordercolor="#000000"
     borderopacity="0.25"
     inkscape:showpageshadow="2"
     inkscape:pageopacity="0.0"
     inkscape:pagecheckerboard="0"
     inkscape:deskcolor="#d1d1d1"
     inkscape:document-units="mm"
     inkscape:zoom="4.787396"
     inkscape:cx="37.703169"
     inkscape:cy="37.912051"
     inkscape:window-width="1900"
     inkscape:window-height="1060"
     inkscape:window-x="0"
     inkscape:window-y="0"
     inkscape:window-maximized="1"
     inkscape:current-layer="layer1" />
  <defs
     id="defs1" />
  <g
     id="layer1"
     transform="translate(-65.76538,-31.693536)">
    <path
       id="rect4"
       style="fill:#f9f9f9;fill-opacity:1;stroke-width:0.252546"
       d="m 70.771281,31.693535 -5.005896,10.043831 4.97489,-0.0052 v -5.006929 h 2.54248 z m 2.511474,5.031734 2.495973,5.001244 -5.038453,0.0057 v 5.017781 h 5.027083 a 5.0021758,5.0179334 0 0 1 0,-0.03411 5.0021758,5.0179334 0 0 1 4.972307,-5.018298 V 36.72528 Z m 7.45691,4.972306 v 5.052404 h -4.972307 a 5.0021758,5.0179334 0 0 0 5.002277,4.983676 5.0021758,5.0179334 0 0 0 5.00228,-5.017782 5.0021758,5.0179334 0 0 0 -5.00228,-5.018298 5.0021758,5.0179334 0 0 0 -0.03,0 z" />
  </g>
</svg>
