<svg id="visual" viewBox="0 0 960 540" width="960" height="540" xmlns="http://www.w3.org/2000/svg" xmlns:xlink="http://www.w3.org/1999/xlink" version="1.1"><rect x="0" y="0" width="960" height="540" fill="#0b0d10"></rect><defs><linearGradient id="grad1_0" x1="43.8%" y1="100%" x2="100%" y2="0%"><stop offset="14.444444444444446%" stop-color="#4facf7" stop-opacity="1"></stop><stop offset="85.55555555555554%" stop-color="#4facf7" stop-opacity="1"></stop></linearGradient></defs><defs><linearGradient id="grad1_1" x1="43.8%" y1="100%" x2="100%" y2="0%"><stop offset="14.444444444444446%" stop-color="#4facf7" stop-opacity="1"></stop><stop offset="85.55555555555554%" stop-color="#4993d2" stop-opacity="1"></stop></linearGradient></defs><defs><linearGradient id="grad1_2" x1="43.8%" y1="100%" x2="100%" y2="0%"><stop offset="14.444444444444446%" stop-color="#417aad" stop-opacity="1"></stop><stop offset="85.55555555555554%" stop-color="#4993d2" stop-opacity="1"></stop></linearGradient></defs><defs><linearGradient id="grad1_3" x1="43.8%" y1="100%" x2="100%" y2="0%"><stop offset="14.444444444444446%" stop-color="#417aad" stop-opacity="1"></stop><stop offset="85.55555555555554%" stop-color="#39628a" stop-opacity="1"></stop></linearGradient></defs><defs><linearGradient id="grad1_4" x1="43.8%" y1="100%" x2="100%" y2="0%"><stop offset="14.444444444444446%" stop-color="#2f4b69" stop-opacity="1"></stop><stop offset="85.55555555555554%" stop-color="#39628a" stop-opacity="1"></stop></linearGradient></defs><defs><linearGradient id="grad1_5" x1="43.8%" y1="100%" x2="100%" y2="0%"><stop offset="14.444444444444446%" stop-color="#2f4b69" stop-opacity="1"></stop><stop offset="85.55555555555554%" stop-color="#253649" stop-opacity="1"></stop></linearGradient></defs><defs><linearGradient id="grad1_6" x1="43.8%" y1="100%" x2="100%" y2="0%"><stop offset="14.444444444444446%" stop-color="#1a222c" stop-opacity="1"></stop><stop offset="85.55555555555554%" stop-color="#253649" stop-opacity="1"></stop></linearGradient></defs><defs><linearGradient id="grad1_7" x1="43.8%" y1="100%" x2="100%" y2="0%"><stop offset="14.444444444444446%" stop-color="#1a222c" stop-opacity="1"></stop><stop offset="85.55555555555554%" stop-color="#0b0d10" stop-opacity="1"></stop></linearGradient></defs><defs><linearGradient id="grad2_0" x1="0%" y1="100%" x2="56.3%" y2="0%"><stop offset="14.444444444444446%" stop-color="#4facf7" stop-opacity="1"></stop><stop offset="85.55555555555554%" stop-color="#4facf7" stop-opacity="1"></stop></linearGradient></defs><defs><linearGradient id="grad2_1" x1="0%" y1="100%" x2="56.3%" y2="0%"><stop offset="14.444444444444446%" stop-color="#4993d2" stop-opacity="1"></stop><stop offset="85.55555555555554%" stop-color="#4facf7" stop-opacity="1"></stop></linearGradient></defs><defs><linearGradient id="grad2_2" x1="0%" y1="100%" x2="56.3%" y2="0%"><stop offset="14.444444444444446%" stop-color="#4993d2" stop-opacity="1"></stop><stop offset="85.55555555555554%" stop-color="#417aad" stop-opacity="1"></stop></linearGradient></defs><defs><linearGradient id="grad2_3" x1="0%" y1="100%" x2="56.3%" y2="0%"><stop offset="14.444444444444446%" stop-color="#39628a" stop-opacity="1"></stop><stop offset="85.55555555555554%" stop-color="#417aad" stop-opacity="1"></stop></linearGradient></defs><defs><linearGradient id="grad2_4" x1="0%" y1="100%" x2="56.3%" y2="0%"><stop offset="14.444444444444446%" stop-color="#39628a" stop-opacity="1"></stop><stop offset="85.55555555555554%" stop-color="#2f4b69" stop-opacity="1"></stop></linearGradient></defs><defs><linearGradient id="grad2_5" x1="0%" y1="100%" x2="56.3%" y2="0%"><stop offset="14.444444444444446%" stop-color="#253649" stop-opacity="1"></stop><stop offset="85.55555555555554%" stop-color="#2f4b69" stop-opacity="1"></stop></linearGradient></defs><defs><linearGradient id="grad2_6" x1="0%" y1="100%" x2="56.3%" y2="0%"><stop offset="14.444444444444446%" stop-color="#253649" stop-opacity="1"></stop><stop offset="85.55555555555554%" stop-color="#1a222c" stop-opacity="1"></stop></linearGradient></defs><defs><linearGradient id="grad2_7" x1="0%" y1="100%" x2="56.3%" y2="0%"><stop offset="14.444444444444446%" stop-color="#0b0d10" stop-opacity="1"></stop><stop offset="85.55555555555554%" stop-color="#1a222c" stop-opacity="1"></stop></linearGradient></defs><g transform="translate(960, 540)"><path d="M-486 0C-475.8 -89.4 -465.6 -178.7 -420.9 -243C-376.2 -307.3 -296.9 -346.5 -221 -382.8C-145.1 -419.1 -72.5 -452.6 0 -486L0 0Z" fill="#14181e"></path><path d="M-425.2 0C-416.3 -78.2 -407.4 -156.4 -368.3 -212.6C-329.1 -268.9 -259.8 -303.2 -193.4 -334.9C-127 -366.7 -63.5 -396 0 -425.2L0 0Z" fill="#202c3a"></path><path d="M-364.5 0C-356.9 -67 -349.2 -134 -315.7 -182.3C-282.1 -230.5 -222.7 -259.8 -165.8 -287.1C-108.8 -314.3 -54.4 -339.4 0 -364.5L0 0Z" fill="#2a4159"></path><path d="M-303.7 0C-297.4 -55.9 -291 -111.7 -263.1 -151.9C-235.1 -192 -185.6 -216.5 -138.1 -239.2C-90.7 -261.9 -45.3 -282.8 0 -303.7L0 0Z" fill="#34577a"></path><path d="M-243 0C-237.9 -44.7 -232.8 -89.4 -210.4 -121.5C-188.1 -153.6 -148.5 -173.2 -110.5 -191.4C-72.5 -209.6 -36.3 -226.3 0 -243L0 0Z" fill="#3d6e9c"></path><path d="M-182.2 0C-178.4 -33.5 -174.6 -67 -157.8 -91.1C-141.1 -115.2 -111.3 -129.9 -82.9 -143.5C-54.4 -157.2 -27.2 -169.7 0 -182.2L0 0Z" fill="#4586bf"></path><path d="M-121.5 0C-119 -22.3 -116.4 -44.7 -105.2 -60.8C-94 -76.8 -74.2 -86.6 -55.3 -95.7C-36.3 -104.8 -18.1 -113.1 0 -121.5L0 0Z" fill="#4c9fe4"></path><path d="M-60.7 0C-59.5 -11.2 -58.2 -22.3 -52.6 -30.4C-47 -38.4 -37.1 -43.3 -27.6 -47.8C-18.1 -52.4 -9.1 -56.6 0 -60.7L0 0Z" fill="#4facf7"></path></g><g transform="translate(0, 0)"><path d="M486 0C472.4 84 458.8 168 420 242.5C381.2 317 317.2 381.9 243 420.9C168.8 459.9 84.4 472.9 0 486L0 0Z" fill="#14181e"></path><path d="M425.3 0C413.4 73.5 401.5 147 367.5 212.2C333.6 277.3 277.6 334.2 212.6 368.3C147.7 402.4 73.8 413.8 0 425.3L0 0Z" fill="#202c3a"></path><path d="M364.5 0C354.3 63 344.1 126 315 181.9C285.9 237.7 237.9 286.4 182.3 315.7C126.6 344.9 63.3 354.7 0 364.5L0 0Z" fill="#2a4159"></path><path d="M303.8 0C295.3 52.5 286.8 105 262.5 151.6C238.3 198.1 198.3 238.7 151.9 263.1C105.5 287.4 52.7 295.6 0 303.8L0 0Z" fill="#34577a"></path><path d="M243 0C236.2 42 229.4 84 210 121.2C190.6 158.5 158.6 190.9 121.5 210.4C84.4 229.9 42.2 236.5 0 243L0 0Z" fill="#3d6e9c"></path><path d="M182.3 0C177.2 31.5 172.1 63 157.5 90.9C143 118.9 119 143.2 91.1 157.8C63.3 172.5 31.6 177.4 0 182.3L0 0Z" fill="#4586bf"></path><path d="M121.5 0C118.1 21 114.7 42 105 60.6C95.3 79.2 79.3 95.5 60.8 105.2C42.2 115 21.1 118.2 0 121.5L0 0Z" fill="#4c9fe4"></path><path d="M60.8 0C59.1 10.5 57.4 21 52.5 30.3C47.7 39.6 39.7 47.7 30.4 52.6C21.1 57.5 10.5 59.1 0 60.8L0 0Z" fill="#4facf7"></path></g></svg>