<svg id="visual" viewBox="0 0 450 900" width="450" height="900" xmlns="http://www.w3.org/2000/svg" xmlns:xlink="http://www.w3.org/1999/xlink" version="1.1"><rect x="0" y="0" width="450" height="900" fill="#0b0d10"></rect><defs><linearGradient id="grad1_0" x1="0%" y1="100%" x2="100%" y2="0%"><stop offset="30%" stop-color="#0b0d10" stop-opacity="1"></stop><stop offset="70%" stop-color="#0b0d10" stop-opacity="1"></stop></linearGradient></defs><defs><linearGradient id="grad2_0" x1="0%" y1="100%" x2="100%" y2="0%"><stop offset="30%" stop-color="#0b0d10" stop-opacity="1"></stop><stop offset="70%" stop-color="#0b0d10" stop-opacity="1"></stop></linearGradient></defs><g transform="translate(450, 900)"><path d="M-135 0C-131.6 -23.8 -128.1 -47.5 -116.9 -67.5C-105.7 -87.5 -86.8 -103.7 -66 -114.3C-45.2 -124.9 -22.6 -130 0 -135L0 0Z" fill="#37b7c3"></path></g><g transform="translate(0, 0)"><path d="M135 0C131.8 24.2 128.6 48.4 116.9 67.5C105.2 86.6 84.9 100.5 64 110.9C43.1 121.2 21.5 128.1 0 135L0 0Z" fill="#37b7c3"></path></g></svg>